<svg width="254" height="13" viewBox="0 0 254 13" fill="none" xmlns="http://www.w3.org/2000/svg">
<line y1="6.25" x2="72" y2="6.25" stroke="#01C880" stroke-width="1.5"/>
<line x1="182" y1="6.25" x2="254" y2="6.25" stroke="#01C880" stroke-width="1.5"/>
<path d="M88.5 0L89.9593 4.49139H94.6819L90.8613 7.26722L92.3206 11.7586L88.5 8.98278L84.6794 11.7586L86.1387 7.26722L82.3181 4.49139H87.0407L88.5 0Z" fill="#01C880"/>
<path d="M107.5 0L108.959 4.49139H113.682L109.861 7.26722L111.321 11.7586L107.5 8.98278L103.679 11.7586L105.139 7.26722L101.318 4.49139H106.041L107.5 0Z" fill="#01C880"/>
<path d="M126.5 0L127.959 4.49139H132.682L128.861 7.26722L130.321 11.7586L126.5 8.98278L122.679 11.7586L124.139 7.26722L120.318 4.49139H125.041L126.5 0Z" fill="#01C880"/>
<path d="M145.5 0L146.959 4.49139H151.682L147.861 7.26722L149.321 11.7586L145.5 8.98278L141.679 11.7586L143.139 7.26722L139.318 4.49139H144.041L145.5 0Z" fill="#01C880"/>
<path d="M164.5 0L165.959 4.49139H170.682L166.861 7.26722L168.321 11.7586L164.5 8.98278L160.679 11.7586L162.139 7.26722L158.318 4.49139H163.041L164.5 0Z" fill="#01C880"/>
</svg>
